# xmcd
#
# Track frame offsets:
#	150
#	13653
#	24535
#	35836
#	49208
#	65999
#	79297
#	91613
#	103410
#	121892
#
# Disc length: 1767 seconds
#
# Revision: 1
# Processed by: cddbd v1.5.2PL0 Copyright (c) Steve Scherf et al.
# Submitted via: audiograbber 1.83.01
#
DISCID=8806e50a
DTITLE=Gene Watson - The Best Of Vol. 2
DYEAR=1988
DGENRE=Country
TTITLE0=No One Will Ever Know
TTITLE1=Pick The Wildwood Flower
TTITLE2=Should I Come Home, Or Should I Go Crazy
TTITLE3=Bedroom Ballad
TTITLE4=Nothing Sure Looked Good On You
TTITLE5=I Can't Help It (If I'm Still In Love With You)
TTITLE6=Raisin' Cane In Texas
TTITLE7=Cowboys Don't Get Lucky All The Time
TTITLE8=Farewell Party
TTITLE9=That Evil Child
EXTD=
EXTT0=
EXTT1=
EXTT2=
EXTT3=
EXTT4=
EXTT5=
EXTT6=
EXTT7=
EXTT8=
EXTT9=
PLAYORDER=
